<?xml version="1.0" encoding="UTF-8" standalone="no"?><svg   xmlns:dc="http://purl.org/dc/elements/1.1/"   xmlns:cc="http://creativecommons.org/ns#"   xmlns:rdf="http://www.w3.org/1999/02/22-rdf-syntax-ns#"   xmlns:svg="http://www.w3.org/2000/svg"   xmlns="http://www.w3.org/2000/svg"   xmlns:sodipodi="http://sodipodi.sourceforge.net/DTD/sodipodi-0.dtd"   xmlns:inkscape="http://www.inkscape.org/namespaces/inkscape"   version="1.1"   id="Capa_1"   x="0px"   y="0px"   viewBox="0 0 58.000076 58.000065"   xml:space="preserve"   sodipodi:docname="box (2).svg"   inkscape:version="0.92.1 r15371"   width="58.000076"   height="58.000065"><metadata     id="metadata55"><rdf:RDF><cc:Work         rdf:about=""><dc:format>image/svg+xml</dc:format><dc:type           rdf:resource="http://purl.org/dc/dcmitype/StillImage" /><dc:title></dc:title></cc:Work></rdf:RDF></metadata><defs     id="defs53" /><sodipodi:namedview     pagecolor="#ffffff"     bordercolor="#666666"     borderopacity="1"     objecttolerance="10"     gridtolerance="10"     guidetolerance="10"     inkscape:pageopacity="0"     inkscape:pageshadow="2"     inkscape:window-width="1920"     inkscape:window-height="1138"     id="namedview51"     showgrid="false"     inkscape:zoom="4"     inkscape:cx="26.705393"     inkscape:cy="-0.33562495"     inkscape:window-x="-8"     inkscape:window-y="-8"     inkscape:window-maximized="1"     inkscape:current-layer="Capa_1" /><g     id="g18"><path       style="fill:#71a526;fill-opacity:1"       d="M 58,55 V 16 L 48,3.0000648 H 10 L 0,16 v 39 c 0.00209483,1.484543 1.3711176,3.005729 3,3 h 52 c 1.567877,0.0108 3.012165,-1.3304 3,-3 z"       id="polygon2"       inkscape:connector-curvature="0"       sodipodi:nodetypes="ccccccccc" /><path       style="fill:#323c1e;fill-opacity:1"       d="M 35,27 H 23 c -1.1,0 -2,-0.9 -2,-2 v 0 c 0,-1.1 0.9,-2 2,-2 h 12 c 1.1,0 2,0.9 2,2 v 0 c 0,1.1 -0.9,2 -2,2 z"       id="path4"       inkscape:connector-curvature="0" /><g       id="g12"><path         style="fill:#ffffff;fill-opacity:1"         d="M 21.592831,50.9375 H 5.5928301 c -0.552,0 -1,0.447 -1,1 0,0.553 0.448,1 1,1 H 21.592831 c 0.552,0 1,-0.447 1,-1 0,-0.553 -0.448,-1 -1,-1 z"         id="path6"         inkscape:connector-curvature="0" /><path         style="fill:#ffffff;fill-opacity:1"         d="m 5.5928301,42.9375 c 0.256,0 0.512,-0.098 0.707,-0.293 l 1.293,-1.293 v 6.586 c 0,0.553 0.448,1 1,1 0.552,0 1,-0.447 1,-1 v -6.586 l 1.2930009,1.293 c 0.195,0.195 0.451,0.293 0.707,0.293 0.256,0 0.512,-0.098 0.707,-0.293 0.391,-0.391 0.391,-1.023 0,-1.414 l -2.9990009,-2.999 c -0.092,-0.093 -0.203,-0.166 -0.326,-0.217 -0.244,-0.101 -0.52,-0.101 -0.764,0 -0.123,0.051 -0.233,0.124 -0.326,0.217 l -2.999,2.999 c -0.391,0.391 -0.391,1.023 0,1.414 0.195,0.195 0.451,0.293 0.707,0.293 z"         id="path8"         inkscape:connector-curvature="0" /><path         style="fill:#ffffff;fill-opacity:1"         d="m 15.592831,42.9375 c 0.256,0 0.512,-0.098 0.707,-0.293 l 1.293,-1.293 v 6.586 c 0,0.553 0.448,1 1,1 0.552,0 1,-0.447 1,-1 v -6.586 l 1.293,1.293 c 0.195,0.195 0.451,0.293 0.707,0.293 0.256,0 0.512,-0.098 0.707,-0.293 0.391,-0.391 0.391,-1.023 0,-1.414 l -2.999,-2.999 c -0.092,-0.093 -0.203,-0.166 -0.326,-0.217 -0.244,-0.101 -0.52,-0.101 -0.764,0 -0.123,0.051 -0.233,0.124 -0.326,0.217 l -2.999,2.999 c -0.391,0.391 -0.391,1.023 0,1.414 0.195,0.195 0.451,0.293 0.707,0.293 z"         id="path10"         inkscape:connector-curvature="0" /></g><path       style="fill:#8fc344;fill-opacity:1"       d="M 58,16 48.625,1.0000648 C 48,0 47.78125,0.015625 47,0 H 11 C 10.21875,0.015625 10,0 9.375,1.0000648 L 0,16 Z"       id="polygon14"       inkscape:connector-curvature="0"       sodipodi:nodetypes="ccccccc" /></g><g     id="g20" /><g     id="g22" /><g     id="g24" /><g     id="g26" /><g     id="g28" /><g     id="g30" /><g     id="g32" /><g     id="g34" /><g     id="g36" /><g     id="g38" /><g     id="g40" /><g     id="g42" /><g     id="g44" /><g     id="g46" /><g     id="g48" /><path     style="fill:#5a6446;fill-opacity:1;stroke-width:0.99174631"     d="m 7.3,4.30628 h 43.4 l 3.17985,5.09414 H 4.12 Z"     id="rect862"     inkscape:connector-curvature="0"     sodipodi:nodetypes="ccccc" /></svg>