<?xml version="1.0" encoding="UTF-8" standalone="no"?><svg   xmlns:dc="http://purl.org/dc/elements/1.1/"   xmlns:cc="http://creativecommons.org/ns#"   xmlns:rdf="http://www.w3.org/1999/02/22-rdf-syntax-ns#"   xmlns:svg="http://www.w3.org/2000/svg"   xmlns="http://www.w3.org/2000/svg"   xmlns:sodipodi="http://sodipodi.sourceforge.net/DTD/sodipodi-0.dtd"   xmlns:inkscape="http://www.inkscape.org/namespaces/inkscape"   version="1.1"   id="Capa_1"   x="0px"   y="0px"   viewBox="0 0 58 42"   xml:space="preserve"   sodipodi:docname="credit-card.svg"   inkscape:version="0.92.1 r15371"   width="58"   height="42"><metadata     id="metadata49"><rdf:RDF><cc:Work         rdf:about=""><dc:format>image/svg+xml</dc:format><dc:type           rdf:resource="http://purl.org/dc/dcmitype/StillImage" /><dc:title></dc:title></cc:Work></rdf:RDF></metadata><defs     id="defs47" /><sodipodi:namedview     pagecolor="#ffffff"     bordercolor="#666666"     borderopacity="1"     objecttolerance="10"     gridtolerance="10"     guidetolerance="10"     inkscape:pageopacity="0"     inkscape:pageshadow="2"     inkscape:window-width="1920"     inkscape:window-height="1138"     id="namedview45"     showgrid="false"     inkscape:zoom="5.7543862"     inkscape:cx="-28.642548"     inkscape:cy="42.72029"     inkscape:window-x="-8"     inkscape:window-y="-8"     inkscape:window-maximized="1"     inkscape:current-layer="Capa_1"     showguides="false" /><g     id="XMLID_69_"     transform="translate(0,-8)"><path       id="XMLID_115_"       style="fill:#71a526;fill-opacity:1"       d="M 54.783,50 H 3.217 C 1.44,50 0,48.56 0,46.783 V 11.217 C 0,9.44 1.44,8 3.217,8 H 54.783 C 56.56,8 58,9.44 58,11.217 V 46.783 C 58,48.56 56.56,50 54.783,50"       inkscape:connector-curvature="0" /><rect       id="XMLID_114_"       y="13"       style="fill:#323c1e;fill-opacity:1"       width="58"       height="8"       x="0" /><path       id="XMLID_113_"       style="fill:#feffff;fill-opacity:1"       d="M 15,28 H 6 C 5.448,28 5,27.552 5,27 5,26.448 5.448,26 6,26 h 9 c 0.552,0 1,0.448 1,1 0,0.552 -0.448,1 -1,1"       inkscape:connector-curvature="0" /><path       id="XMLID_112_"       style="fill:#ffffff;fill-opacity:1"       d="m 28,28 h -9 c -0.552,0 -1,-0.448 -1,-1 0,-0.552 0.448,-1 1,-1 h 9 c 0.552,0 1,0.448 1,1 0,0.552 -0.448,1 -1,1"       inkscape:connector-curvature="0" /><path       id="XMLID_111_"       style="fill:#ffffff;fill-opacity:1"       d="M 7,33 H 6 C 5.448,33 5,32.552 5,32 5,31.448 5.448,31 6,31 h 1 c 0.552,0 1,0.448 1,1 0,0.552 -0.448,1 -1,1"       inkscape:connector-curvature="0" /><path       id="XMLID_110_"       style="fill:#ffffff;fill-opacity:1"       d="m 13,33 h -2 c -0.552,0 -1,-0.448 -1,-1 0,-0.552 0.448,-1 1,-1 h 2 c 0.552,0 1,0.448 1,1 0,0.552 -0.448,1 -1,1"       inkscape:connector-curvature="0" /><path       id="XMLID_109_"       style="fill:#fffffc;fill-opacity:1"       d="m 18,33 h -1 c -0.552,0 -1,-0.448 -1,-1 0,-0.552 0.448,-1 1,-1 h 1 c 0.552,0 1,0.448 1,1 0,0.552 -0.448,1 -1,1"       inkscape:connector-curvature="0" /><path       id="XMLID_108_"       style="fill:#ffffff;fill-opacity:1"       d="m 24,33 h -2 c -0.552,0 -1,-0.448 -1,-1 0,-0.552 0.448,-1 1,-1 h 2 c 0.552,0 1,0.448 1,1 0,0.552 -0.448,1 -1,1"       inkscape:connector-curvature="0" /><path       id="XMLID_107_"       style="fill:#ffffff;fill-opacity:1"       d="M 28,33 C 27.74,33 27.48,32.89 27.29,32.71 27.11,32.52 27,32.27 27,32 c 0,-0.26 0.11,-0.52 0.29,-0.71 0.37,-0.37 1.04,-0.37 1.42,0 0.18,0.19 0.29,0.45 0.29,0.71 0,0.26 -0.11,0.52 -0.29,0.71 C 28.52,32.89 28.26,33 28,33"       inkscape:connector-curvature="0" /><path       id="XMLID_106_"       style="fill:#db2215;fill-opacity:0.74371858"       d="m 46,39 c 0,3.314 -2.686,6 -6,6 -3.314,0 -6,-2.686 -6,-6 0,-3.314 2.686,-6 6,-6 3.314,0 6,2.686 6,6"       inkscape:connector-curvature="0" /><path       id="XMLID_105_"       style="fill:#245ea9;fill-opacity:0.74371858"       d="m 53,39 c 0,3.314 -2.686,6 -6,6 -3.314,0 -6,-2.686 -6,-6 0,-3.314 2.686,-6 6,-6 3.314,0 6,2.686 6,6"       inkscape:connector-curvature="0" /></g><g     id="g14"     transform="translate(0,-8)" /><g     id="g16"     transform="translate(0,-8)" /><g     id="g18"     transform="translate(0,-8)" /><g     id="g20"     transform="translate(0,-8)" /><g     id="g22"     transform="translate(0,-8)" /><g     id="g24"     transform="translate(0,-8)" /><g     id="g26"     transform="translate(0,-8)" /><g     id="g28"     transform="translate(0,-8)" /><g     id="g30"     transform="translate(0,-8)" /><g     id="g32"     transform="translate(0,-8)" /><g     id="g34"     transform="translate(0,-8)" /><g     id="g36"     transform="translate(0,-8)" /><g     id="g38"     transform="translate(0,-8)" /><g     id="g40"     transform="translate(0,-8)" /><g     id="g42"     transform="translate(0,-8)" /></svg>